<svg width="16" height="14" viewBox="0 0 16 14" fill="none" xmlns="http://www.w3.org/2000/svg">
<path d="M1 3.8L3.11701 5.61456C3.25678 5.7344 3.43297 5.8 3.61493 5.8H12.385C12.567 5.8 12.7432 5.7344 12.883 5.61456L15 3.8M3.72222 8.6H3.73M12.2778 8.6H12.2856M5.01384 1H10.9862C11.5444 1 12.0598 1.30766 12.3367 1.80618L14.5901 5.86216C14.8587 6.34568 15 6.89288 15 7.44984V12.2C15 12.6418 14.6518 13 14.2222 13H13.4444C13.0149 13 12.6667 12.6418 12.6667 12.2V11.4H3.33333V12.2C3.33333 12.6418 2.98511 13 2.55556 13H1.77778C1.34823 13 1 12.6418 1 12.2V7.44984C1 6.89288 1.14129 6.34568 1.40991 5.86216L3.66324 1.80618C3.94019 1.30766 4.45561 1 5.01384 1ZM4.11111 8.6C4.11111 8.82088 3.937 9 3.72222 9C3.50745 9 3.33333 8.82088 3.33333 8.6C3.33333 8.37912 3.50745 8.2 3.72222 8.2C3.937 8.2 4.11111 8.37912 4.11111 8.6ZM12.6667 8.6C12.6667 8.82088 12.4925 9 12.2778 9C12.063 9 11.8889 8.82088 11.8889 8.6C11.8889 8.37912 12.063 8.2 12.2778 8.2C12.4925 8.2 12.6667 8.37912 12.6667 8.6Z" stroke="#8DB1AB" stroke-linecap="round" stroke-linejoin="round"/>
</svg>
