<svg width="24" height="24" viewBox="0 0 24 24" fill="none" xmlns="http://www.w3.org/2000/svg">
<path fill-rule="evenodd" clip-rule="evenodd" d="M8.598 11.34L14.3408 5.59497C14.634 5.30247 15.1088 5.30247 15.402 5.59497C15.6945 5.89497 15.6945 6.3675 15.402 6.66L10.0605 12L15.402 17.34C15.6945 17.6325 15.6945 18.105 15.402 18.405C15.1088 18.6975 14.634 18.6975 14.3408 18.405L8.598 12.66C8.41875 12.48 8.3625 12.2325 8.40375 12C8.3625 11.7675 8.41875 11.52 8.598 11.34ZM12 24C18.627 24 24 18.63 24 12C24 5.37 18.627 1.43763e-06 12 8.58275e-07C5.373 2.78924e-07 -2.78662e-07 5.37 -8.58275e-07 12C-1.43789e-06 18.63 5.373 24 12 24Z" fill="#8DB1AB"/>
</svg>
