<svg width="12" height="16" viewBox="0 0 12 16" fill="none" xmlns="http://www.w3.org/2000/svg">
<path d="M6 0C2.6865 0 0 2.6865 0 6C0 7.30475 0.42775 8.502 1.13875 9.4825C1.1515 9.506 1.1535 9.53225 1.168 9.55475L5.168 15.5548C5.3535 15.833 5.666 16 6 16C6.334 16 6.6465 15.833 6.832 15.5548L10.832 9.55475C10.8467 9.53225 10.8485 9.506 10.8612 9.4825C11.5722 8.502 12 7.30475 12 6C12 2.6865 9.3135 0 6 0ZM6 8C4.8955 8 4 7.1045 4 6C4 4.8955 4.8955 4 6 4C7.1045 4 8 4.8955 8 6C8 7.1045 7.1045 8 6 8Z" fill="#8DB1AB"/>
</svg>
