<svg width="14" height="16" viewBox="0 0 14 16" fill="none" xmlns="http://www.w3.org/2000/svg">
<path d="M2.33333 16H11.6667C12.2855 16 12.879 15.7471 13.3166 15.2971C13.7542 14.847 14 14.2365 14 13.6V4C14 3.57565 13.8361 3.16869 13.5444 2.86863C13.2527 2.56857 12.857 2.4 12.4444 2.4H10.8889V0.8C10.8889 0.587827 10.8069 0.384344 10.6611 0.234315C10.5152 0.0842854 10.3174 0 10.1111 0C9.90483 0 9.707 0.0842854 9.56114 0.234315C9.41528 0.384344 9.33333 0.587827 9.33333 0.8V2.4H4.66667V0.8C4.66667 0.587827 4.58472 0.384344 4.43886 0.234315C4.293 0.0842854 4.09517 0 3.88889 0C3.68261 0 3.48478 0.0842854 3.33892 0.234315C3.19306 0.384344 3.11111 0.587827 3.11111 0.8V2.4H1.55556C1.143 2.4 0.747335 2.56857 0.455612 2.86863C0.163888 3.16869 0 3.57565 0 4V13.6C0 14.2365 0.245833 14.847 0.683418 15.2971C1.121 15.7471 1.71449 16 2.33333 16ZM1.55556 8.4C1.55556 8.29391 1.59653 8.19217 1.66946 8.11716C1.74239 8.04214 1.8413 8 1.94444 8H12.0556C12.1587 8 12.2576 8.04214 12.3305 8.11716C12.4035 8.19217 12.4444 8.29391 12.4444 8.4V13.6C12.4444 13.8122 12.3625 14.0157 12.2166 14.1657C12.0708 14.3157 11.8729 14.4 11.6667 14.4H2.33333C2.12705 14.4 1.92922 14.3157 1.78336 14.1657C1.6375 14.0157 1.55556 13.8122 1.55556 13.6V8.4Z" fill="#8DB1AB"/>
</svg>
