<svg width="283" height="55" viewBox="0 0 283 55" fill="none" xmlns="http://www.w3.org/2000/svg">
<path d="M203.019 20V0.400024H213.995V1.35203H206.659V9.75202H212.595V10.704H206.659V19.048H213.995V20H203.019Z" fill="#8DB1AB"/>
<path d="M192.666 20.112C186.338 20.112 182.278 16.276 182.278 10.256C182.278 4.40402 186.338 0.288025 192.666 0.288025C195.13 0.288025 197.006 1.04403 198.49 2.61203L197.986 3.73203C196.67 2.02403 194.99 1.24003 192.666 1.24003C188.158 1.24003 186.31 6.00003 186.31 10.2C186.31 14.568 188.158 19.16 192.666 19.16C193.702 19.16 194.682 18.992 195.578 18.628C195.578 16.444 195.55 13.112 195.55 10.564H199.274V17.2C199.162 17.396 198.966 17.62 198.658 17.956C198.378 18.264 197.986 18.544 197.538 18.852L197.258 19.048C196.026 19.748 194.402 20.112 192.666 20.112Z" fill="#8DB1AB"/>
<path d="M165.646 20.28L173.57 0.288025L181.186 20.28H177.322L174.858 13.448H169.426L166.71 20.28H165.646ZM169.79 12.496H174.522L172.31 6.08403L169.79 12.496Z" fill="#8DB1AB"/>
<path d="M158.613 20V0.400024H162.253V20H158.613Z" fill="#8DB1AB"/>
<path d="M140.867 20V0.400024L146.411 0.428024C150.947 0.456026 153.943 2.61202 153.943 5.72002C153.943 8.71602 150.975 10.956 147.475 11.04L155.063 20H153.691L146.103 11.04H144.507V20H140.867ZM144.507 10.116H146.775C149.519 10.116 150.191 7.34403 150.191 5.69203C150.191 4.12403 149.435 1.32402 146.411 1.32402H144.507V10.116Z" fill="#8DB1AB"/>
<path d="M121.951 20.28L129.875 0.288025L137.491 20.28H133.627L131.163 13.448H125.731L123.015 20.28H121.951ZM126.095 12.496H130.827L128.615 6.08403L126.095 12.496Z" fill="#8DB1AB"/>
<path d="M106.414 20.112L98.1258 7.06403L96.1378 20H95.1578L98.2658 0.288025L107.73 15.632L116.046 0.288025L119.322 20H115.514L113.386 7.17603L106.414 20.112Z" fill="#8DB1AB"/>
<path d="M73.4646 20V0.400024H84.4406V1.35203H77.1046V9.75202H83.0406V10.704H77.1046V19.048H84.4406V20H73.4646Z" fill="#8DB1AB"/>
<path d="M55.7185 20V0.400024L61.2625 0.428024C65.7985 0.456026 68.7945 2.61202 68.7945 5.72002C68.7945 8.71602 65.8265 10.956 62.3265 11.04L69.9145 20H68.5425L60.9545 11.04H59.3585V20H55.7185ZM59.3585 10.116H61.6265C64.3705 10.116 65.0425 7.34403 65.0425 5.69203C65.0425 4.12403 64.2865 1.32402 61.2625 1.32402H59.3585V10.116Z" fill="#8DB1AB"/>
<path d="M44.529 20V1.35203H39.125V0.400024H53.573V1.35203H48.169V20H44.529Z" fill="#8DB1AB"/>
<path d="M29.2054 20.112C23.1574 20.112 18.8174 16.08 18.8174 10.256C18.8174 4.43202 23.1574 0.288025 29.2054 0.288025C35.2534 0.288025 39.5654 4.43202 39.5654 10.256C39.5654 16.08 35.2534 20.112 29.2054 20.112ZM29.2054 19.16C33.4614 19.16 35.6454 14.372 35.6454 10.2C35.6454 6.02803 33.4614 1.24003 29.2054 1.24003C24.9494 1.24003 22.7374 6.05603 22.7374 10.2C22.7374 14.344 24.9494 19.16 29.2054 19.16Z" fill="#8DB1AB"/>
<path d="M15.668 20.112L1.10801 6.53203V20H0.156006V0.288025L14.716 13.84V0.400025H15.668V20.112Z" fill="#8DB1AB"/>
<path d="M282.734 54.112L268.174 40.532V54H267.222V34.288L281.782 47.84V34.4H282.734V54.112Z" fill="#37515F"/>
<path d="M253.168 54V34.4H264.144V35.352H256.808V43.752H262.744V44.704H256.808V53.048H264.144V54H253.168Z" fill="#37515F"/>
<path d="M245.211 54V34.4H248.851V54H245.211Z" fill="#37515F"/>
<path d="M231.621 54V34.4H235.261V53.048H242.121V54H231.621Z" fill="#37515F"/>
<path d="M223.222 32.44L222.606 31.824L225.238 28.492L226.526 29.78L223.222 32.44ZM217.566 54V34.4H228.542V35.352H221.206V43.752H227.142V44.704H221.206V53.048H228.542V54H217.566Z" fill="#37515F"/>
<path d="M199.82 54V34.4L205.364 34.428C209.9 34.456 212.896 36.612 212.896 39.72C212.896 42.716 209.928 44.956 206.428 45.04L214.016 54H212.644L205.056 45.04H203.46V54H199.82ZM203.46 44.116H205.728C208.472 44.116 209.144 41.344 209.144 39.692C209.144 38.124 208.388 35.324 205.364 35.324H203.46V44.116Z" fill="#37515F"/>
<path d="M188.864 54.112C184.552 54.112 181.612 51.816 181.472 47.896C181.444 47.14 181.472 44.676 181.472 42.016V34.4H185.112V47.28C185.112 52.264 187.324 53.16 189.2 53.16C193.204 53.16 195.108 50.948 195.108 46.188V34.4H196.06V46.188C196.06 51.62 193.792 54.112 188.864 54.112Z" fill="#37515F"/>
<path d="M163.404 54.28L171.328 34.288L178.944 54.28H175.08L172.616 47.448H167.184L164.468 54.28H163.404ZM167.548 46.496H172.28L170.068 40.084L167.548 46.496Z" fill="#37515F"/>
<path d="M144.744 54V35.352H139.34V34.4H153.788V35.352H148.384V54H144.744Z" fill="#37515F"/>
<path d="M126.32 54V34.4H137.296V35.352H129.96V43.752H135.896V44.704H129.96V53.048H137.296V54H126.32Z" fill="#37515F"/>
<path d="M99.0093 54.28L106.933 34.288L114.549 54.28H110.685L108.221 47.448H102.789L100.073 54.28H99.0093ZM103.153 46.496H107.885L105.673 40.084L103.153 46.496Z" fill="#37515F"/>
<path d="M90.3773 54.112C84.0493 54.112 79.8213 50.108 79.8213 44.256C79.8213 38.404 84.0493 34.288 90.3773 34.288C92.8413 34.288 94.7173 35.044 96.2013 36.612L95.6973 37.732C94.3813 36.024 92.7013 35.24 90.3773 35.24C85.8693 35.24 84.0213 40 84.0213 44.2C84.0213 48.4 85.8693 53.16 90.3773 53.16C92.7293 53.16 94.8013 52.236 96.0053 50.696L96.5093 51.816C95.3053 53.244 92.9813 54.112 90.3773 54.112Z" fill="#37515F"/>
<path d="M71.7288 54.112C65.4008 54.112 61.1728 50.108 61.1728 44.256C61.1728 38.404 65.4008 34.288 71.7288 34.288C74.1928 34.288 76.0688 35.044 77.5528 36.612L77.0488 37.732C75.7328 36.024 74.0528 35.24 71.7288 35.24C67.2208 35.24 65.3728 40 65.3728 44.2C65.3728 48.4 67.2208 53.16 71.7288 53.16C74.0808 53.16 76.1528 52.236 77.3568 50.696L77.8608 51.816C76.6568 53.244 74.3328 54.112 71.7288 54.112Z" fill="#37515F"/>
<path d="M48.281 54V34.4H59.257V35.352H51.921V43.752H57.857V44.704H51.921V53.048H59.257V54H48.281Z" fill="#37515F"/>
<path d="M31.9568 54V34.4H38.1728C41.5608 34.4 43.7448 36.304 43.7448 39.048C43.7448 40.84 42.5408 41.988 40.4968 42.772C43.4368 43.584 45.1448 45.628 45.1448 48.456C45.1448 51.872 42.1488 54 37.8928 54H31.9568ZM35.5968 42.38H37.6128C39.7688 42.38 40.5808 40.84 40.5808 39.02C40.5808 37.172 39.9928 35.464 38.1168 35.352H35.5968V42.38ZM35.5968 53.048H37.9768C40.1048 53.048 41.3928 50.78 41.3928 48.428C41.3928 45.18 40.6088 43.304 37.6128 43.304H35.5968V53.048Z" fill="#37515F"/>
<path d="M23.5581 32.44L22.9421 31.824L25.5741 28.492L26.8621 29.78L23.5581 32.44ZM17.9021 54V34.4H28.8781V35.352H21.5421V43.752H27.4781V44.704H21.5421V53.048H28.8781V54H17.9021Z" fill="#37515F"/>
<path d="M0.156006 54V34.4L5.70001 34.428C10.236 34.456 13.232 36.612 13.232 39.72C13.232 42.716 10.264 44.956 6.76401 45.04L14.352 54H12.98L5.39201 45.04H3.79601V54H0.156006ZM3.79601 44.116H6.06401C8.80801 44.116 9.48001 41.344 9.48001 39.692C9.48001 38.124 8.72401 35.324 5.70001 35.324H3.79601V44.116Z" fill="#37515F"/>
</svg>
